<?xml version="1.0" encoding="utf-8"?>
<!-- Generator: Adobe Illustrator 16.2.0, SVG Export Plug-In . SVG Version: 6.00 Build 0)  -->
<!DOCTYPE svg PUBLIC "-//W3C//DTD SVG 1.1//EN" "http://www.w3.org/Graphics/SVG/1.1/DTD/svg11.dtd">
<svg version="1.1" id="Layer_1" xmlns="http://www.w3.org/2000/svg" xmlns:xlink="http://www.w3.org/1999/xlink" x="0px" y="0px"
	 width="299.333px" height="236.667px" viewBox="0 0 299.333 236.667" enable-background="new 0 0 299.333 236.667"
	 xml:space="preserve">
<g>
	<g>
		<g>
			<g>
				<line fill="none" stroke="#000000" stroke-miterlimit="10" x1="6.805" y1="231.207" x2="290.27" y2="231.207"/>
				<g>
					<path d="M296.305,231.207c-2.84,1.054-6.363,2.852-8.547,4.756l1.72-4.756l-1.72-4.755
						C289.942,228.356,293.465,230.154,296.305,231.207z"/>
				</g>
			</g>
		</g>
		<g>
			<g>
				
					<line fill="none" stroke="#000000" stroke-linecap="square" stroke-miterlimit="10" x1="6.805" y1="231.207" x2="6.805" y2="9.742"/>
				<g>
					<path d="M6.805,3.707c1.054,2.84,2.852,6.363,4.756,8.547l-4.756-1.72l-4.755,1.72C3.955,10.07,5.752,6.546,6.805,3.707z"/>
				</g>
			</g>
		</g>
	</g>
	<g>
		<line fill="none" stroke="#009640" stroke-width="2" stroke-miterlimit="10" x1="132.85" y1="92.31" x2="140.023" y2="99.483"/>
		<line fill="none" stroke="#009640" stroke-width="2" stroke-miterlimit="10" x1="140.023" y1="92.31" x2="132.85" y2="99.483"/>
	</g>
	<g>
		<line fill="none" stroke="#009640" stroke-width="2" stroke-miterlimit="10" x1="172.957" y1="113.83" x2="180.13" y2="121.003"/>
		<line fill="none" stroke="#009640" stroke-width="2" stroke-miterlimit="10" x1="180.13" y1="113.83" x2="172.957" y2="121.003"/>
	</g>
	<g>
		
			<line fill="none" stroke="#009640" stroke-width="2" stroke-miterlimit="10" x1="162.88" y1="120.161" x2="170.054" y2="127.334"/>
		
			<line fill="none" stroke="#009640" stroke-width="2" stroke-miterlimit="10" x1="170.054" y1="120.161" x2="162.88" y2="127.334"/>
	</g>
	<g>
		
			<line fill="none" stroke="#009640" stroke-width="2" stroke-miterlimit="10" x1="170.964" y1="138.983" x2="178.137" y2="146.157"/>
		
			<line fill="none" stroke="#009640" stroke-width="2" stroke-miterlimit="10" x1="178.137" y1="138.983" x2="170.964" y2="146.157"/>
	</g>
	<g>
		<line fill="none" stroke="#009640" stroke-width="2" stroke-miterlimit="10" x1="130.617" y1="106.656" x2="137.79" y2="113.83"/>
		<line fill="none" stroke="#009640" stroke-width="2" stroke-miterlimit="10" x1="137.79" y1="106.656" x2="130.617" y2="113.83"/>
	</g>
	<g>
		
			<line fill="none" stroke="#009640" stroke-width="2" stroke-miterlimit="10" x1="106.607" y1="138.983" x2="113.78" y2="146.157"/>
		
			<line fill="none" stroke="#009640" stroke-width="2" stroke-miterlimit="10" x1="113.78" y1="138.983" x2="106.607" y2="146.157"/>
	</g>
	<g>
		<line fill="none" stroke="#009640" stroke-width="2" stroke-miterlimit="10" x1="147.354" y1="95.896" x2="154.526" y2="103.07"/>
		<line fill="none" stroke="#009640" stroke-width="2" stroke-miterlimit="10" x1="154.526" y1="95.896" x2="147.354" y2="103.07"/>
	</g>
	<g>
		
			<line fill="none" stroke="#009640" stroke-width="2" stroke-miterlimit="10" x1="130.617" y1="128.771" x2="137.79" y2="135.945"/>
		
			<line fill="none" stroke="#009640" stroke-width="2" stroke-miterlimit="10" x1="137.79" y1="128.771" x2="130.617" y2="135.945"/>
	</g>
	<g>
		
			<line fill="none" stroke="#009640" stroke-width="2" stroke-miterlimit="10" x1="119.101" y1="140.483" x2="126.273" y2="147.657"/>
		
			<line fill="none" stroke="#009640" stroke-width="2" stroke-miterlimit="10" x1="126.273" y1="140.483" x2="119.101" y2="147.657"/>
	</g>
	<g>
		
			<line fill="none" stroke="#009640" stroke-width="2" stroke-miterlimit="10" x1="150.94" y1="125.185" x2="158.113" y2="132.358"/>
		
			<line fill="none" stroke="#009640" stroke-width="2" stroke-miterlimit="10" x1="158.113" y1="125.185" x2="150.94" y2="132.358"/>
	</g>
	<g>
		
			<line fill="none" stroke="#009640" stroke-width="2" stroke-miterlimit="10" x1="152.534" y1="107.546" x2="159.707" y2="114.72"/>
		
			<line fill="none" stroke="#009640" stroke-width="2" stroke-miterlimit="10" x1="159.707" y1="107.546" x2="152.534" y2="114.72"/>
	</g>
	<g>
		
			<line fill="none" stroke="#009640" stroke-width="2" stroke-miterlimit="10" x1="152.534" y1="146.157" x2="159.707" y2="153.33"/>
		
			<line fill="none" stroke="#009640" stroke-width="2" stroke-miterlimit="10" x1="159.707" y1="146.157" x2="152.534" y2="153.33"/>
	</g>
	<g>
		
			<line fill="none" stroke="#009640" stroke-width="2" stroke-miterlimit="10" x1="132.11" y1="148.148" x2="139.283" y2="155.322"/>
		
			<line fill="none" stroke="#009640" stroke-width="2" stroke-miterlimit="10" x1="139.283" y1="148.148" x2="132.11" y2="155.322"/>
	</g>
	<g>
		
			<line fill="none" stroke="#009640" stroke-width="2" stroke-miterlimit="10" x1="110.194" y1="103.07" x2="117.367" y2="110.243"/>
		
			<line fill="none" stroke="#009640" stroke-width="2" stroke-miterlimit="10" x1="117.367" y1="103.07" x2="110.194" y2="110.243"/>
	</g>
	<g>
		
			<line fill="none" stroke="#009640" stroke-width="2" stroke-miterlimit="10" x1="110.194" y1="121.599" x2="117.367" y2="128.772"/>
		
			<line fill="none" stroke="#009640" stroke-width="2" stroke-miterlimit="10" x1="117.367" y1="121.599" x2="110.194" y2="128.772"/>
	</g>
	<circle fill="#E30613" cx="268.096" cy="21.081" r="3.586"/>
	<circle fill="#E30613" cx="228.687" cy="21.081" r="3.586"/>
	<circle fill="#E30613" cx="270.088" cy="110.243" r="3.586"/>
	<circle fill="#E30613" cx="264.509" cy="41.404" r="3.587"/>
	<circle fill="#E30613" cx="215.097" cy="33.833" r="3.586"/>
	<circle fill="#E30613" cx="248.172" cy="44.991" r="3.586"/>
	<circle fill="#E30613" cx="240.985" cy="65.711" r="3.586"/>
	<circle fill="#E30613" cx="248.172" cy="30.246" r="3.586"/>
	<circle fill="#E30613" cx="233.812" cy="44.381" r="3.586"/>
	<circle fill="#E30613" cx="275.269" cy="51.554" r="3.587"/>
	<circle fill="#E30613" cx="219.465" cy="44.896" r="3.586"/>
	<circle fill="#E30613" cx="180.057" cy="44.896" r="3.586"/>
	<circle fill="#E30613" cx="215.879" cy="65.218" r="3.586"/>
	<circle fill="#E30613" cx="166.467" cy="57.647" r="3.587"/>
	<circle fill="#E30613" cx="199.542" cy="68.806" r="3.586"/>
	<circle fill="#E30613" cx="199.542" cy="54.061" r="3.586"/>
	<circle fill="#E30613" cx="185.182" cy="68.195" r="3.586"/>
	<circle fill="#E30613" cx="226.638" cy="75.369" r="3.586"/>
	<circle fill="#E30613" cx="195.87" cy="9.431" r="3.587"/>
	<circle fill="#E30613" cx="156.461" cy="9.431" r="3.586"/>
	<circle fill="#E30613" cx="192.284" cy="29.754" r="3.586"/>
	<circle fill="#E30613" cx="142.871" cy="22.183" r="3.586"/>
	<circle fill="#E30613" cx="175.946" cy="33.341" r="3.586"/>
	<circle fill="#E30613" cx="175.946" cy="18.596" r="3.586"/>
	<circle fill="#E30613" cx="161.586" cy="32.73" r="3.586"/>
	<circle fill="#E30613" cx="203.043" cy="39.904" r="3.586"/>
	<circle fill="#E30613" cx="149.943" cy="32.73" r="3.587"/>
	<circle fill="#E30613" cx="129.263" cy="30.247" r="3.587"/>
	<circle fill="#E30613" cx="110.534" cy="32.73" r="3.586"/>
	<circle fill="#E30613" cx="146.357" cy="53.054" r="3.587"/>
	<circle fill="#E30613" cx="139.284" cy="71.782" r="3.587"/>
	<circle fill="#E30613" cx="96.944" cy="45.483" r="3.586"/>
	<circle fill="#E30613" cx="77.542" cy="47.967" r="3.586"/>
	<circle fill="#E30613" cx="130.019" cy="56.641" r="3.586"/>
	<circle fill="#E30613" cx="118.49" cy="66.321" r="3.586"/>
	<circle fill="#E30613" cx="157.116" cy="63.204" r="3.586"/>
	<circle fill="#E30613" cx="153.529" cy="76.869" r="3.586"/>
	<circle fill="#E30613" cx="166.467" cy="83.444" r="3.587"/>
	<circle fill="#E30613" cx="99.775" cy="57.156" r="3.587"/>
	<circle fill="#E30613" cx="60.366" cy="57.156" r="3.586"/>
	<circle fill="#E30613" cx="80.187" cy="19.933" r="3.586"/>
	<circle fill="#E30613" cx="60.785" cy="22.417" r="3.586"/>
	<circle fill="#E30613" cx="83.018" cy="31.606" r="3.587"/>
	<circle fill="#E30613" cx="43.609" cy="31.606" r="3.586"/>
	<circle fill="#E30613" cx="65.869" cy="39.06" r="3.586"/>
	<circle fill="#E30613" cx="46.467" cy="41.544" r="3.586"/>
	<circle fill="#E30613" cx="68.699" cy="50.732" r="3.587"/>
	<circle fill="#E30613" cx="29.291" cy="50.732" r="3.586"/>
	<circle fill="#E30613" cx="103.362" cy="69.908" r="3.587"/>
	<circle fill="#E30613" cx="46.776" cy="69.908" r="3.586"/>
	<circle fill="#E30613" cx="79.851" cy="81.065" r="3.586"/>
	<circle fill="#E30613" cx="79.851" cy="66.321" r="3.586"/>
	<circle fill="#E30613" cx="65.491" cy="80.456" r="3.586"/>
	<circle fill="#E30613" cx="106.948" cy="87.629" r="3.586"/>
	<circle fill="#E30613" cx="86.866" cy="87.833" r="3.587"/>
	<circle fill="#E30613" cx="47.457" cy="87.833" r="3.586"/>
	<circle fill="#E30613" cx="83.28" cy="108.156" r="3.587"/>
	<circle fill="#E30613" cx="33.867" cy="100.585" r="3.586"/>
	<circle fill="#E30613" cx="66.942" cy="111.743" r="3.586"/>
	<circle fill="#E30613" cx="52.582" cy="111.133" r="3.586"/>
	<circle fill="#E30613" cx="94.039" cy="118.307" r="3.586"/>
	<circle fill="#E30613" cx="70.37" cy="127.334" r="3.587"/>
	<circle fill="#E30613" cx="30.961" cy="127.334" r="3.586"/>
	<circle fill="#E30613" cx="66.783" cy="147.657" r="3.587"/>
	<circle fill="#E30613" cx="17.371" cy="140.086" r="3.586"/>
	<circle fill="#E30613" cx="50.446" cy="151.244" r="3.586"/>
	<circle fill="#E30613" cx="50.446" cy="136.499" r="3.586"/>
	<circle fill="#E30613" cx="36.086" cy="150.634" r="3.586"/>
	<circle fill="#E30613" cx="43.829" cy="161.979" r="3.586"/>
	<circle fill="#E30613" cx="30.238" cy="174.73" r="3.586"/>
	<circle fill="#E30613" cx="63.313" cy="185.888" r="3.586"/>
	<circle fill="#E30613" cx="63.313" cy="171.144" r="3.586"/>
	<circle fill="#E30613" cx="48.954" cy="185.278" r="3.586"/>
	<circle fill="#E30613" cx="30.919" cy="192.173" r="3.586"/>
	<circle fill="#E30613" cx="17.329" cy="204.925" r="3.586"/>
	<circle fill="#E30613" cx="50.404" cy="216.083" r="3.586"/>
	<circle fill="#E30613" cx="50.404" cy="201.338" r="3.586"/>
	<circle fill="#E30613" cx="36.044" cy="215.473" r="3.586"/>
	<circle fill="#E30613" cx="78.181" cy="192.97" r="3.586"/>
	<circle fill="#E30613" cx="64.591" cy="205.722" r="3.586"/>
	<circle fill="#E30613" cx="97.666" cy="216.879" r="3.586"/>
	<circle fill="#E30613" cx="97.666" cy="202.135" r="3.586"/>
	<circle fill="#E30613" cx="83.306" cy="216.27" r="3.586"/>
	<circle fill="#E30613" cx="77.543" cy="157.807" r="3.586"/>
	<circle fill="#E30613" cx="142.77" cy="169.457" r="3.587"/>
	<circle fill="#E30613" cx="79.693" cy="146.157" r="3.586"/>
	<circle fill="#E30613" cx="115.515" cy="166.48" r="3.587"/>
	<circle fill="#E30613" cx="99.177" cy="170.067" r="3.586"/>
	<circle fill="#E30613" cx="99.177" cy="155.322" r="3.586"/>
	<circle fill="#E30613" cx="84.818" cy="169.457" r="3.586"/>
	<circle fill="#E30613" cx="126.274" cy="176.63" r="3.586"/>
	<circle fill="#E30613" cx="152.774" cy="180.218" r="3.587"/>
	<circle fill="#E30613" cx="149.187" cy="200.541" r="3.587"/>
	<circle fill="#E30613" cx="99.774" cy="192.97" r="3.586"/>
	<circle fill="#E30613" cx="132.85" cy="204.127" r="3.586"/>
	<circle fill="#E30613" cx="132.85" cy="189.383" r="3.586"/>
	<circle fill="#E30613" cx="118.49" cy="203.518" r="3.586"/>
	<circle fill="#E30613" cx="159.947" cy="210.691" r="3.586"/>
	<circle fill="#E30613" cx="211.61" cy="183.804" r="3.586"/>
	<circle fill="#E30613" cx="172.201" cy="183.804" r="3.586"/>
	<circle fill="#E30613" cx="208.023" cy="204.127" r="3.586"/>
	<circle fill="#E30613" cx="191.686" cy="207.714" r="3.586"/>
	<circle fill="#E30613" cx="191.686" cy="192.969" r="3.586"/>
	<circle fill="#E30613" cx="177.326" cy="207.104" r="3.586"/>
	<circle fill="#E30613" cx="218.783" cy="214.277" r="3.586"/>
	<circle fill="#E30613" cx="222.456" cy="154.22" r="3.586"/>
	<circle fill="#E30613" cx="183.046" cy="154.22" r="3.586"/>
	<circle fill="#E30613" cx="218.869" cy="174.543" r="3.586"/>
	<circle fill="#E30613" cx="169.457" cy="166.972" r="3.586"/>
	<circle fill="#E30613" cx="202.532" cy="163.385" r="3.586"/>
	<circle fill="#E30613" cx="188.171" cy="177.52" r="3.586"/>
	<circle fill="#E30613" cx="229.628" cy="184.694" r="3.586"/>
	<circle fill="#E30613" cx="242.379" cy="115.684" r="3.586"/>
	<circle fill="#E30613" cx="202.971" cy="115.684" r="3.586"/>
	<circle fill="#E30613" cx="238.793" cy="136.007" r="3.587"/>
	<circle fill="#E30613" cx="189.379" cy="128.436" r="3.586"/>
	<circle fill="#E30613" cx="222.456" cy="124.849" r="3.586"/>
	<circle fill="#E30613" cx="208.096" cy="138.984" r="3.586"/>
	<circle fill="#E30613" cx="249.552" cy="146.157" r="3.587"/>
	<circle fill="#E30613" cx="215.5" cy="81.761" r="3.586"/>
	<circle fill="#E30613" cx="176.092" cy="81.761" r="3.586"/>
	<circle fill="#E30613" cx="211.915" cy="102.084" r="3.586"/>
	<circle fill="#E30613" cx="195.578" cy="105.671" r="3.586"/>
	<circle fill="#E30613" cx="195.578" cy="90.926" r="3.586"/>
	<circle fill="#E30613" cx="181.217" cy="105.061" r="3.586"/>
	<circle fill="#E30613" cx="176.543" cy="94.513" r="3.586"/>
	<circle fill="#E30613" cx="222.673" cy="112.235" r="3.586"/>
	<circle fill="#E30613" cx="268.096" cy="63.719" r="3.586"/>
	<circle fill="#E30613" cx="271.682" cy="78.457" r="3.586"/>
</g>
</svg>
