<?xml version="1.0" encoding="utf-8"?>
<!-- Generator: Adobe Illustrator 16.2.0, SVG Export Plug-In . SVG Version: 6.00 Build 0)  -->
<!DOCTYPE svg PUBLIC "-//W3C//DTD SVG 1.1//EN" "http://www.w3.org/Graphics/SVG/1.1/DTD/svg11.dtd">
<svg version="1.1" id="Layer_1" xmlns="http://www.w3.org/2000/svg" xmlns:xlink="http://www.w3.org/1999/xlink" x="0px" y="0px"
	 width="300.667px" height="236.667px" viewBox="0 0 300.667 236.667" enable-background="new 0 0 300.667 236.667"
	 xml:space="preserve">
<g>
	<g>
		<g>
			<g>
				<line fill="none" stroke="#000000" stroke-miterlimit="10" x1="7.482" y1="231.207" x2="290.947" y2="231.207"/>
				<g>
					<path d="M296.982,231.207c-2.84,1.054-6.363,2.852-8.547,4.756l1.72-4.756l-1.72-4.755
						C290.619,228.356,294.143,230.154,296.982,231.207z"/>
				</g>
			</g>
		</g>
		<g>
			<g>
				<line fill="none" stroke="#000000" stroke-miterlimit="10" x1="7.482" y1="231.207" x2="7.482" y2="9.742"/>
				<g>
					<path d="M7.482,3.707c1.054,2.84,2.852,6.363,4.756,8.547l-4.756-1.72l-4.755,1.72C4.632,10.07,6.43,6.546,7.482,3.707z"/>
				</g>
			</g>
		</g>
	</g>
	<g>
		<line fill="none" stroke="#009640" stroke-width="2" stroke-miterlimit="10" x1="37.822" y1="162.893" x2="44.995" y2="170.067"/>
		<line fill="none" stroke="#009640" stroke-width="2" stroke-miterlimit="10" x1="44.995" y1="162.893" x2="37.822" y2="170.067"/>
	</g>
	<g>
		<line fill="none" stroke="#009640" stroke-width="2" stroke-miterlimit="10" x1="15.166" y1="156.212" x2="22.338" y2="163.385"/>
		<line fill="none" stroke="#009640" stroke-width="2" stroke-miterlimit="10" x1="22.338" y1="156.212" x2="15.166" y2="163.385"/>
	</g>
	<g>
		<line fill="none" stroke="#009640" stroke-width="2" stroke-miterlimit="10" x1="15.166" y1="138.985" x2="22.338" y2="146.159"/>
		<line fill="none" stroke="#009640" stroke-width="2" stroke-miterlimit="10" x1="22.338" y1="138.985" x2="15.166" y2="146.159"/>
	</g>
	<g>
		<line fill="none" stroke="#009640" stroke-width="2" stroke-miterlimit="10" x1="73.197" y1="207.713" x2="80.37" y2="214.887"/>
		<line fill="none" stroke="#009640" stroke-width="2" stroke-miterlimit="10" x1="80.37" y1="207.713" x2="73.197" y2="214.887"/>
	</g>
	<g>
		<line fill="none" stroke="#009640" stroke-width="2" stroke-miterlimit="10" x1="87.544" y1="202.941" x2="94.717" y2="210.115"/>
		<line fill="none" stroke="#009640" stroke-width="2" stroke-miterlimit="10" x1="94.717" y1="202.941" x2="87.544" y2="210.115"/>
	</g>
	<g>
		<line fill="none" stroke="#009640" stroke-width="2" stroke-miterlimit="10" x1="87.543" y1="215.145" x2="94.716" y2="222.318"/>
		<line fill="none" stroke="#009640" stroke-width="2" stroke-miterlimit="10" x1="94.716" y1="215.145" x2="87.543" y2="222.318"/>
	</g>
	<g>
		<line fill="none" stroke="#009640" stroke-width="2" stroke-miterlimit="10" x1="73.197" y1="196.953" x2="80.371" y2="204.126"/>
		<line fill="none" stroke="#009640" stroke-width="2" stroke-miterlimit="10" x1="80.371" y1="196.953" x2="73.197" y2="204.126"/>
	</g>
	<g>
		<line fill="none" stroke="#009640" stroke-width="2" stroke-miterlimit="10" x1="74.633" y1="180.827" x2="81.807" y2="188"/>
		<line fill="none" stroke="#009640" stroke-width="2" stroke-miterlimit="10" x1="81.807" y1="180.827" x2="74.633" y2="188"/>
	</g>
	<g>
		<line fill="none" stroke="#009640" stroke-width="2" stroke-miterlimit="10" x1="35.589" y1="177.239" x2="42.762" y2="184.413"/>
		<line fill="none" stroke="#009640" stroke-width="2" stroke-miterlimit="10" x1="42.762" y1="177.239" x2="35.589" y2="184.413"/>
	</g>
	<g>
		<line fill="none" stroke="#009640" stroke-width="2" stroke-miterlimit="10" x1="11.58" y1="209.567" x2="18.752" y2="216.74"/>
		<line fill="none" stroke="#009640" stroke-width="2" stroke-miterlimit="10" x1="18.752" y1="209.567" x2="11.58" y2="216.74"/>
	</g>
	<g>
		<line fill="none" stroke="#009640" stroke-width="2" stroke-miterlimit="10" x1="52.326" y1="166.479" x2="59.498" y2="173.653"/>
		<line fill="none" stroke="#009640" stroke-width="2" stroke-miterlimit="10" x1="59.498" y1="166.479" x2="52.326" y2="173.653"/>
	</g>
	<g>
		<line fill="none" stroke="#009640" stroke-width="2" stroke-miterlimit="10" x1="29.969" y1="150.633" x2="37.141" y2="157.807"/>
		<line fill="none" stroke="#009640" stroke-width="2" stroke-miterlimit="10" x1="37.141" y1="150.633" x2="29.969" y2="157.807"/>
	</g>
	<g>
		<line fill="none" stroke="#009640" stroke-width="2" stroke-miterlimit="10" x1="35.589" y1="199.355" x2="42.762" y2="206.528"/>
		<line fill="none" stroke="#009640" stroke-width="2" stroke-miterlimit="10" x1="42.762" y1="199.355" x2="35.589" y2="206.528"/>
	</g>
	<g>
		<line fill="none" stroke="#009640" stroke-width="2" stroke-miterlimit="10" x1="24.072" y1="211.067" x2="31.246" y2="218.24"/>
		<line fill="none" stroke="#009640" stroke-width="2" stroke-miterlimit="10" x1="31.246" y1="211.067" x2="24.072" y2="218.24"/>
	</g>
	<g>
		<line fill="none" stroke="#009640" stroke-width="2" stroke-miterlimit="10" x1="55.912" y1="195.769" x2="63.085" y2="202.942"/>
		<line fill="none" stroke="#009640" stroke-width="2" stroke-miterlimit="10" x1="63.085" y1="195.769" x2="55.912" y2="202.942"/>
	</g>
	<g>
		<line fill="none" stroke="#009640" stroke-width="2" stroke-miterlimit="10" x1="57.506" y1="178.13" x2="64.68" y2="185.303"/>
		<line fill="none" stroke="#009640" stroke-width="2" stroke-miterlimit="10" x1="64.68" y1="178.13" x2="57.506" y2="185.303"/>
	</g>
	<g>
		<line fill="none" stroke="#009640" stroke-width="2" stroke-miterlimit="10" x1="57.506" y1="216.74" x2="64.68" y2="223.914"/>
		<line fill="none" stroke="#009640" stroke-width="2" stroke-miterlimit="10" x1="64.68" y1="216.74" x2="57.506" y2="223.914"/>
	</g>
	<g>
		<line fill="none" stroke="#009640" stroke-width="2" stroke-miterlimit="10" x1="105.432" y1="220.327" x2="112.605" y2="227.5"/>
		<line fill="none" stroke="#009640" stroke-width="2" stroke-miterlimit="10" x1="112.605" y1="220.327" x2="105.432" y2="227.5"/>
	</g>
	<g>
		<line fill="none" stroke="#009640" stroke-width="2" stroke-miterlimit="10" x1="37.082" y1="218.732" x2="44.256" y2="225.905"/>
		<line fill="none" stroke="#009640" stroke-width="2" stroke-miterlimit="10" x1="44.256" y1="218.732" x2="37.082" y2="225.905"/>
	</g>
	<g>
		<line fill="none" stroke="#009640" stroke-width="2" stroke-miterlimit="10" x1="15.166" y1="173.653" x2="22.339" y2="180.827"/>
		<line fill="none" stroke="#009640" stroke-width="2" stroke-miterlimit="10" x1="22.339" y1="173.653" x2="15.166" y2="180.827"/>
	</g>
	<g>
		<line fill="none" stroke="#009640" stroke-width="2" stroke-miterlimit="10" x1="15.166" y1="192.182" x2="22.339" y2="199.355"/>
		<line fill="none" stroke="#009640" stroke-width="2" stroke-miterlimit="10" x1="22.339" y1="192.182" x2="15.166" y2="199.355"/>
	</g>
	<circle fill="#E30613" cx="268.773" cy="21.081" r="3.586"/>
	<circle fill="#E30613" cx="229.364" cy="21.081" r="3.587"/>
	<circle fill="#E30613" cx="270.766" cy="110.243" r="3.586"/>
	<circle fill="#E30613" cx="265.187" cy="41.404" r="3.587"/>
	<circle fill="#E30613" cx="215.774" cy="33.833" r="3.587"/>
	<circle fill="#E30613" cx="248.85" cy="44.991" r="3.586"/>
	<circle fill="#E30613" cx="241.662" cy="65.711" r="3.586"/>
	<circle fill="#E30613" cx="248.85" cy="30.246" r="3.586"/>
	<circle fill="#E30613" cx="234.489" cy="44.381" r="3.587"/>
	<circle fill="#E30613" cx="275.946" cy="51.554" r="3.587"/>
	<circle fill="#E30613" cx="220.143" cy="44.896" r="3.586"/>
	<circle fill="#E30613" cx="180.734" cy="44.896" r="3.586"/>
	<circle fill="#E30613" cx="216.557" cy="65.218" r="3.586"/>
	<circle fill="#E30613" cx="167.144" cy="57.647" r="3.586"/>
	<circle fill="#E30613" cx="200.219" cy="68.806" r="3.586"/>
	<circle fill="#E30613" cx="200.219" cy="54.061" r="3.586"/>
	<circle fill="#E30613" cx="185.859" cy="68.195" r="3.586"/>
	<circle fill="#E30613" cx="227.315" cy="75.369" r="3.587"/>
	<circle fill="#E30613" cx="196.548" cy="9.431" r="3.587"/>
	<circle fill="#E30613" cx="157.139" cy="9.431" r="3.586"/>
	<circle fill="#E30613" cx="192.961" cy="29.754" r="3.586"/>
	<circle fill="#E30613" cx="143.548" cy="22.183" r="3.586"/>
	<circle fill="#E30613" cx="176.623" cy="33.341" r="3.586"/>
	<circle fill="#E30613" cx="176.623" cy="18.596" r="3.586"/>
	<circle fill="#E30613" cx="162.264" cy="32.73" r="3.586"/>
	<circle fill="#E30613" cx="203.721" cy="39.904" r="3.586"/>
	<circle fill="#E30613" cx="150.62" cy="32.73" r="3.587"/>
	<circle fill="#E30613" cx="129.94" cy="30.247" r="3.587"/>
	<circle fill="#E30613" cx="111.211" cy="32.73" r="3.586"/>
	<circle fill="#E30613" cx="147.034" cy="53.054" r="3.587"/>
	<circle fill="#E30613" cx="139.962" cy="71.782" r="3.587"/>
	<circle fill="#E30613" cx="97.621" cy="45.483" r="3.586"/>
	<circle fill="#E30613" cx="78.219" cy="47.967" r="3.586"/>
	<circle fill="#E30613" cx="130.696" cy="56.641" r="3.587"/>
	<circle fill="#E30613" cx="119.167" cy="66.321" r="3.587"/>
	<circle fill="#E30613" cx="157.793" cy="63.204" r="3.586"/>
	<circle fill="#E30613" cx="154.206" cy="76.869" r="3.587"/>
	<circle fill="#E30613" cx="167.144" cy="83.444" r="3.586"/>
	<circle fill="#E30613" cx="100.452" cy="57.156" r="3.587"/>
	<circle fill="#E30613" cx="61.043" cy="57.156" r="3.586"/>
	<circle fill="#E30613" cx="80.864" cy="19.933" r="3.587"/>
	<circle fill="#E30613" cx="61.463" cy="22.417" r="3.586"/>
	<circle fill="#E30613" cx="83.695" cy="31.606" r="3.586"/>
	<circle fill="#E30613" cx="44.287" cy="31.606" r="3.586"/>
	<circle fill="#E30613" cx="66.546" cy="39.06" r="3.587"/>
	<circle fill="#E30613" cx="47.145" cy="41.544" r="3.586"/>
	<circle fill="#E30613" cx="69.376" cy="50.732" r="3.586"/>
	<circle fill="#E30613" cx="29.968" cy="50.732" r="3.586"/>
	<circle fill="#E30613" cx="104.04" cy="69.908" r="3.586"/>
	<circle fill="#E30613" cx="47.453" cy="69.908" r="3.586"/>
	<circle fill="#E30613" cx="80.528" cy="81.065" r="3.587"/>
	<circle fill="#E30613" cx="80.528" cy="66.321" r="3.587"/>
	<circle fill="#E30613" cx="66.168" cy="80.456" r="3.586"/>
	<circle fill="#E30613" cx="107.625" cy="87.629" r="3.586"/>
	<circle fill="#E30613" cx="87.543" cy="87.833" r="3.586"/>
	<circle fill="#E30613" cx="48.134" cy="87.833" r="3.586"/>
	<circle fill="#E30613" cx="83.957" cy="108.156" r="3.586"/>
	<circle fill="#E30613" cx="34.544" cy="100.585" r="3.587"/>
	<circle fill="#E30613" cx="67.619" cy="111.743" r="3.586"/>
	<circle fill="#E30613" cx="53.259" cy="111.133" r="3.586"/>
	<circle fill="#E30613" cx="94.716" cy="118.307" r="3.586"/>
	<circle fill="#E30613" cx="71.047" cy="127.334" r="3.586"/>
	<circle fill="#E30613" cx="20.486" cy="113.83" r="3.586"/>
	<circle fill="#E30613" cx="67.46" cy="147.657" r="3.586"/>
	<circle fill="#E30613" cx="37.822" cy="128.436" r="3.587"/>
	<circle fill="#E30613" cx="51.123" cy="136.499" r="3.586"/>
	<circle fill="#E30613" cx="143.447" cy="169.457" r="3.586"/>
	<circle fill="#E30613" cx="80.37" cy="146.157" r="3.587"/>
	<circle fill="#E30613" cx="93.278" cy="154.22" r="3.587"/>
	<circle fill="#E30613" cx="116.192" cy="166.48" r="3.587"/>
	<circle fill="#E30613" cx="97.621" cy="170.957" r="3.587"/>
	<circle fill="#E30613" cx="126.952" cy="176.63" r="3.586"/>
	<circle fill="#E30613" cx="153.451" cy="180.218" r="3.586"/>
	<circle fill="#E30613" cx="149.864" cy="200.541" r="3.587"/>
	<circle fill="#E30613" cx="133.527" cy="204.127" r="3.586"/>
	<circle fill="#E30613" cx="104.04" cy="187.391" r="3.586"/>
	<circle fill="#E30613" cx="133.527" cy="189.383" r="3.586"/>
	<circle fill="#E30613" cx="119.167" cy="203.518" r="3.587"/>
	<circle fill="#E30613" cx="134.959" cy="218.24" r="3.587"/>
	<circle fill="#E30613" cx="160.624" cy="210.691" r="3.587"/>
	<circle fill="#E30613" cx="212.287" cy="183.804" r="3.586"/>
	<circle fill="#E30613" cx="172.878" cy="183.804" r="3.587"/>
	<circle fill="#E30613" cx="208.701" cy="204.127" r="3.586"/>
	<circle fill="#E30613" cx="192.363" cy="207.714" r="3.586"/>
	<circle fill="#E30613" cx="192.363" cy="192.969" r="3.586"/>
	<circle fill="#E30613" cx="178.003" cy="207.104" r="3.587"/>
	<circle fill="#E30613" cx="219.46" cy="214.277" r="3.587"/>
	<circle fill="#E30613" cx="223.133" cy="154.22" r="3.586"/>
	<circle fill="#E30613" cx="183.724" cy="154.22" r="3.587"/>
	<circle fill="#E30613" cx="219.546" cy="174.543" r="3.587"/>
	<circle fill="#E30613" cx="170.134" cy="166.972" r="3.587"/>
	<circle fill="#E30613" cx="203.209" cy="163.385" r="3.586"/>
	<circle fill="#E30613" cx="188.849" cy="177.52" r="3.587"/>
	<circle fill="#E30613" cx="230.306" cy="184.694" r="3.587"/>
	<circle fill="#E30613" cx="243.057" cy="115.684" r="3.586"/>
	<circle fill="#E30613" cx="203.648" cy="115.684" r="3.586"/>
	<circle fill="#E30613" cx="239.47" cy="136.007" r="3.587"/>
	<circle fill="#E30613" cx="190.057" cy="128.436" r="3.586"/>
	<circle fill="#E30613" cx="223.133" cy="124.849" r="3.586"/>
	<circle fill="#E30613" cx="208.773" cy="138.984" r="3.586"/>
	<circle fill="#E30613" cx="250.229" cy="146.157" r="3.587"/>
	<circle fill="#E30613" cx="216.178" cy="81.761" r="3.586"/>
	<circle fill="#E30613" cx="176.77" cy="81.761" r="3.586"/>
	<circle fill="#E30613" cx="212.592" cy="102.084" r="3.586"/>
	<circle fill="#E30613" cx="196.255" cy="105.671" r="3.587"/>
	<circle fill="#E30613" cx="196.255" cy="90.926" r="3.587"/>
	<circle fill="#E30613" cx="181.895" cy="105.061" r="3.586"/>
	<circle fill="#E30613" cx="177.221" cy="94.513" r="3.586"/>
	<circle fill="#E30613" cx="223.351" cy="112.235" r="3.587"/>
	<circle fill="#E30613" cx="268.773" cy="63.719" r="3.586"/>
	<circle fill="#E30613" cx="272.359" cy="78.457" r="3.586"/>
	<circle fill="#E30613" cx="164.874" cy="92.961" r="3.587"/>
	<circle fill="#E30613" cx="169.242" cy="104.024" r="3.586"/>
	<circle fill="#E30613" cx="129.834" cy="104.024" r="3.586"/>
	<circle fill="#E30613" cx="165.656" cy="124.347" r="3.586"/>
	<circle fill="#E30613" cx="116.244" cy="116.776" r="3.586"/>
	<circle fill="#E30613" cx="149.318" cy="127.934" r="3.586"/>
	<circle fill="#E30613" cx="149.318" cy="113.189" r="3.586"/>
	<circle fill="#E30613" cx="134.959" cy="127.324" r="3.586"/>
	<circle fill="#E30613" cx="176.415" cy="134.498" r="3.587"/>
	<circle fill="#E30613" cx="142.061" cy="88.882" r="3.586"/>
	<circle fill="#E30613" cx="125.723" cy="92.469" r="3.586"/>
	<circle fill="#E30613" cx="125.723" cy="77.724" r="3.586"/>
	<circle fill="#E30613" cx="106.893" cy="101.474" r="3.586"/>
	<circle fill="#E30613" cx="152.82" cy="99.033" r="3.586"/>
	<circle fill="#E30613" cx="106.893" cy="122.333" r="3.586"/>
	<circle fill="#E30613" cx="103.306" cy="135.997" r="3.587"/>
	<circle fill="#E30613" cx="89.691" cy="130.91" r="3.587"/>
	<circle fill="#E30613" cx="116.244" cy="142.573" r="3.586"/>
	<circle fill="#E30613" cx="109.018" cy="157.229" r="3.586"/>
	<circle fill="#E30613" cx="165.277" cy="140.89" r="3.586"/>
	<circle fill="#E30613" cx="125.869" cy="140.89" r="3.586"/>
	<circle fill="#E30613" cx="161.691" cy="161.213" r="3.586"/>
	<circle fill="#E30613" cx="115.58" cy="184.693" r="3.587"/>
	<circle fill="#E30613" cx="145.354" cy="150.055" r="3.587"/>
	<circle fill="#E30613" cx="130.994" cy="164.189" r="3.586"/>
	<circle fill="#E30613" cx="126.32" cy="153.642" r="3.586"/>
</g>
</svg>
